<?xml version="1.0" encoding="UTF-8" standalone="no"?>
<svg
   xmlns:dc="http://purl.org/dc/elements/1.1/"
   xmlns:cc="http://creativecommons.org/ns#"
   xmlns:rdf="http://www.w3.org/1999/02/22-rdf-syntax-ns#"
   xmlns:svg="http://www.w3.org/2000/svg"
   xmlns="http://www.w3.org/2000/svg"
   xmlns:xlink="http://www.w3.org/1999/xlink"
   xmlns:sodipodi="http://sodipodi.sourceforge.net/DTD/sodipodi-0.dtd"
   xmlns:inkscape="http://www.inkscape.org/namespaces/inkscape"
   class="loading-logo"
   role="img"
   viewBox="-3 -3 83.854042 94.904541"
   version="1.1"
   id="svg8"
   sodipodi:docname="logo.svg"
   inkscape:version="1.0.2 (e86c870879, 2021-01-15, custom)"
   width="83.854042"
   height="94.904541">
  <sodipodi:namedview
     pagecolor="#ffffff"
     bordercolor="#666666"
     borderopacity="1"
     objecttolerance="10"
     gridtolerance="10"
     guidetolerance="10"
     inkscape:pageopacity="0"
     inkscape:pageshadow="2"
     inkscape:window-width="1920"
     inkscape:window-height="1001"
     id="namedview9"
     showgrid="false"
     inkscape:zoom="6.1135201"
     inkscape:cx="42.27595"
     inkscape:cy="54.104201"
     inkscape:window-x="-9"
     inkscape:window-y="-9"
     inkscape:window-maximized="1"
     inkscape:current-layer="svg8" />
  <metadata
     id="metadata14">
    <rdf:RDF>
      <cc:Work
         rdf:about="">
        <dc:format>image/svg+xml</dc:format>
        <dc:type
           rdf:resource="http://purl.org/dc/dcmitype/StillImage" />
        <dc:title>Logo</dc:title>
      </cc:Work>
    </rdf:RDF>
  </metadata>
  <defs
     id="defs12">
    <linearGradient
       inkscape:collect="always"
       id="linearGradient1086-8">
      <stop
         style="stop-color:#ff1133;stop-opacity:1"
         offset="0"
         id="stop1082" />
      <stop
         style="stop-color:#da77ff;stop-opacity:1"
         offset="1"
         id="stop1084" />
    </linearGradient>
    <linearGradient
       inkscape:collect="always"
       id="linearGradient1052-0-3">
      <stop
         style="stop-color:#ff1133;stop-opacity:1;"
         offset="0"
         id="stop1048" />
      <stop
         style="stop-color:#da77ff;stop-opacity:1"
         offset="1"
         id="stop1050" />
    </linearGradient>
    <linearGradient
       inkscape:collect="always"
       id="linearGradient1016">
      <stop
         style="stop-color:#ff1133;stop-opacity:1"
         offset="0"
         id="stop1012" />
      <stop
         style="stop-color:#ff5500;stop-opacity:0;"
         offset="1"
         id="stop1014" />
    </linearGradient>
    <linearGradient
       inkscape:collect="always"
       xlink:href="#linearGradient1016"
       id="linearGradient1018"
       x1="-4.9526011"
       y1="44.615643"
       x2="78.901438"
       y2="44.615643"
       gradientUnits="userSpaceOnUse" />
    <linearGradient
       inkscape:collect="always"
       xlink:href="#linearGradient1052-0-3"
       id="linearGradient1054"
       x1="-4.9526011"
       y1="44.615643"
       x2="78.449789"
       y2="44.615643"
       gradientUnits="userSpaceOnUse" />
    <linearGradient
       inkscape:collect="always"
       xlink:href="#linearGradient1086-8"
       id="linearGradient1075"
       x1="18.003906"
       y1="45.163086"
       x2="56.091843"
       y2="45.163086"
       gradientUnits="userSpaceOnUse" />
  </defs>
  <title
     id="title2">Logo</title>
  <g
     inkscape:groupmode="layer"
     id="layer4"
     inkscape:label="fondo"
     sodipodi:insensitive="true"
     style="display:inline">
    <path
       style="fill:#000000;fill-opacity:1;stroke:none;stroke-width:3.00001;stroke-linecap:square;stroke-linejoin:round;stroke-miterlimit:4;stroke-dasharray:none;stroke-opacity:1;paint-order:markers fill stroke"
       d="M 25.476205,75.809042 9.3307461,66.290306 9.3643738,47.007162 9.3980014,27.724018 25.428046,18.669133 c 8.88255,-5.017482 16.154174,-9.0265188 16.308436,-8.9912673 0.153116,0.034989 7.606166,4.3857733 16.562334,9.6684073 l 16.28394,9.604791 -0.04157,18.973936 -0.04157,18.973938 -16.343558,9.223746 c -8.988957,5.073061 -16.386495,9.21955 -16.438974,9.21442 -0.05248,-0.0051 -7.360872,-4.292759 -16.240874,-9.528062 z"
       id="path1010"
       transform="translate(-3,-3)" />
  </g>
  <g
     inkscape:groupmode="layer"
     id="layer1"
     inkscape:label="contorno"
     transform="translate(20.662675,8.0314474)"
     sodipodi:insensitive="true"
     style="display:inline">
    <g
       id="polygon4"
       style="fill:url(#linearGradient1018);fill-opacity:1;stroke:none;stroke-opacity:1"
       transform="translate(-18.710074,-8.1948178)">
      <g
         id="path877"
         style="opacity:1;fill:url(#linearGradient1018);fill-opacity:1;stroke:none;stroke-opacity:1">
        <path
           style="color:#000000;font-style:normal;font-variant:normal;font-weight:normal;font-stretch:normal;font-size:medium;line-height:normal;font-family:sans-serif;font-variant-ligatures:normal;font-variant-position:normal;font-variant-caps:normal;font-variant-numeric:normal;font-variant-alternates:normal;font-variant-east-asian:normal;font-feature-settings:normal;font-variation-settings:normal;text-indent:0;text-align:start;text-decoration:none;text-decoration-line:none;text-decoration-style:solid;text-decoration-color:#000000;letter-spacing:normal;word-spacing:normal;text-transform:none;writing-mode:lr-tb;direction:ltr;text-orientation:mixed;dominant-baseline:auto;baseline-shift:baseline;text-anchor:start;white-space:normal;shape-padding:0;shape-margin:0;inline-size:0;clip-rule:nonzero;display:inline;overflow:visible;visibility:visible;isolation:auto;mix-blend-mode:normal;color-interpolation:sRGB;color-interpolation-filters:linearRGB;solid-color:#000000;solid-opacity:1;vector-effect:none;fill:url(#linearGradient1018);fill-opacity:1;fill-rule:nonzero;stroke:none;stroke-width:3;stroke-linecap:butt;stroke-linejoin:round;stroke-miterlimit:4;stroke-dasharray:none;stroke-dashoffset:0;stroke-opacity:1;color-rendering:auto;image-rendering:auto;shape-rendering:auto;text-rendering:auto;enable-background:accumulate;stop-color:#000000;stop-opacity:1"
           d="m 38.69698,-1.4999985 c -0.493234,4.487e-4 -0.978039,0.127952 -1.407698,0.3702234 L -0.03995676,19.931806 C -0.94223283,20.441244 -1.5001848,21.397305 -1.5,22.433617 v 43.080506 c 2.001e-4,1.016645 0.5376983,1.957448 1.41330704,2.473763 L 37.242545,90.006812 c 0.882967,0.520969 1.976633,0.53166 2.869611,0.02805 L 77.441394,68.973281 c 0.902277,-0.509438 1.460229,-1.4655 1.460044,-2.501813 V 23.390961 c -2e-4,-1.016645 -0.537698,-1.957448 -1.413306,-2.473763 L 40.158893,-1.1017278 C 39.716022,-1.3629874 39.211144,-1.5005319 38.69698,-1.4999985 Z M 38.66893,4.6872153 73.15847,25.030788 V 64.794245 L 38.732497,84.217869 4.2429569,63.874296 V 24.110839 Z"
           id="path889" />
        <path
           style="color:#000000;font-style:normal;font-variant:normal;font-weight:normal;font-stretch:normal;font-size:medium;line-height:normal;font-family:sans-serif;font-variant-ligatures:normal;font-variant-position:normal;font-variant-caps:normal;font-variant-numeric:normal;font-variant-alternates:normal;font-variant-east-asian:normal;font-feature-settings:normal;font-variation-settings:normal;text-indent:0;text-align:start;text-decoration:none;text-decoration-line:none;text-decoration-style:solid;text-decoration-color:#000000;letter-spacing:normal;word-spacing:normal;text-transform:none;writing-mode:lr-tb;direction:ltr;text-orientation:mixed;dominant-baseline:auto;baseline-shift:baseline;text-anchor:start;white-space:normal;shape-padding:0;shape-margin:0;inline-size:0;clip-rule:nonzero;display:inline;overflow:visible;visibility:visible;isolation:auto;mix-blend-mode:normal;color-interpolation:sRGB;color-interpolation-filters:linearRGB;solid-color:#000000;solid-opacity:1;vector-effect:none;fill:url(#linearGradient1054);fill-opacity:1;fill-rule:nonzero;stroke:none;stroke-linecap:butt;stroke-linejoin:round;stroke-miterlimit:4;stroke-dasharray:none;stroke-dashoffset:0;stroke-opacity:1;color-rendering:auto;image-rendering:auto;shape-rendering:auto;text-rendering:auto;enable-background:accumulate;stop-color:#000000;stop-opacity:1"
           d="m 36.742711,-2.8366272 c -0.750844,6.831e-4 -1.488544,0.1956637 -2.142578,0.5644531 L -2.7299448,18.788373 c -1.3713896,0.774306 -2.222937,2.233716 -2.2226562,3.808594 v 43.080078 c 3.041e-4,1.545161 0.8213433,2.980782 2.1523437,3.765625 L 34.527868,91.462201 c 1.342119,0.791879 3.011798,0.808465 4.36914,0.04297 l 37.328125,-21.0625 h 0.002 c 1.371391,-0.774307 2.222937,-2.233715 2.222656,-3.808594 V 23.553998 c -3.5e-4,-1.545161 -0.82139,-2.980782 -2.15239,-3.765625 L 38.969274,-2.2311584 C 38.295142,-2.6288441 37.525405,-2.8374392 36.742711,-2.8366272 Z M 36.699741,6.5832947 69.7056,26.050092 v 38.03125 L 36.797399,82.649701 3.7895865,63.180951 v -38.03125 z"
           id="path891"
           sodipodi:nodetypes="cccccccccccccccccccccc" />
      </g>
    </g>
  </g>
  <g
     inkscape:groupmode="layer"
     id="layer2"
     inkscape:label="letra"
     transform="translate(20.662675,8.0314474)"
     style="display:inline">
    <g
       aria-label="D"
       id="text6"
       style="font-size:57.3333px;font-family:sans-serif;fill:url(#linearGradient1075);fill-opacity:1.0;stroke:#ff5500;stroke-width:3"
       transform="translate(-18.783531,-8.7422607)">
      <g
         id="path876"
         style="opacity:1;fill-opacity:1.0;fill:url(#linearGradient1075)">
        <path
           style="color:#000000;font-style:normal;font-variant:normal;font-weight:normal;font-stretch:normal;font-size:57.3333px;line-height:normal;font-family:Algerian;-inkscape-font-specification:Algerian;font-variant-ligatures:normal;font-variant-position:normal;font-variant-caps:normal;font-variant-numeric:normal;font-variant-alternates:normal;font-variant-east-asian:normal;font-feature-settings:normal;font-variation-settings:normal;text-indent:0;text-align:start;text-decoration:none;text-decoration-line:none;text-decoration-style:solid;text-decoration-color:#000000;letter-spacing:normal;word-spacing:normal;text-transform:none;writing-mode:lr-tb;direction:ltr;text-orientation:mixed;dominant-baseline:auto;baseline-shift:baseline;text-anchor:start;white-space:normal;shape-padding:0;shape-margin:0;inline-size:0;clip-rule:nonzero;display:inline;overflow:visible;visibility:visible;isolation:auto;mix-blend-mode:normal;color-interpolation:sRGB;color-interpolation-filters:linearRGB;solid-color:#000000;solid-opacity:1;vector-effect:none;fill:url(#linearGradient1075);fill-opacity:1.0;fill-rule:nonzero;stroke:none;stroke-width:3;stroke-linecap:butt;stroke-linejoin:miter;stroke-miterlimit:4;stroke-dasharray:none;stroke-dashoffset:0;stroke-opacity:1;color-rendering:auto;image-rendering:auto;shape-rendering:auto;text-rendering:auto;enable-background:accumulate;stop-color:#000000;stop-opacity:1"
           d="m 23.266129,26.05714 h 11.029942 c 5.39366,0 9.387581,1.035807 11.981764,3.10742 3.863279,3.060763 5.794918,7.857201 5.794918,14.389315 0,6.774736 -1.689018,11.673822 -5.067054,14.697258 -1.530381,1.362412 -3.247394,2.323566 -5.151039,2.883462 -1.884981,0.559895 -4.39518,0.839843 -7.530595,0.839843 H 22.426285 L 26.26157,59.034987 V 29.27654 Z m 8.482417,2.351561 V 59.81884 h 1.539713 V 30.256357 c 0.970485,-0.149306 1.856986,-0.223959 2.659503,-0.223959 1.530381,0 2.734157,0.158637 3.611326,0.475912 0.895833,0.298611 1.791666,0.858506 2.687499,1.679686 -1.978297,-0.933159 -4.096569,-1.399739 -6.354814,-1.399739 -0.485243,0 -1.119791,0.03733 -1.903645,0.11198 V 59.81884 c 2.090277,0 3.676647,-0.167969 4.759112,-0.503906 1.082465,-0.3546 2.10894,-1.026475 3.079425,-2.015624 2.706162,-2.743488 4.059243,-7.353294 4.059243,-13.829419 0,-6.326819 -1.46506,-10.647346 -4.39518,-12.961581 C 39.717725,29.108571 36.908916,28.408701 33.0643,28.408701 Z M 24.161962,64.27001 23.74204,63.514151 h 10.246088 c 5.03906,0 8.865013,-0.699869 11.477858,-2.099608 5.617619,-2.98611 8.426428,-8.762366 8.426428,-17.328767 0,-5.729597 -1.259765,-9.984803 -3.779295,-12.765618 l -1.119791,-1.23177 c -0.03733,-0.03733 -0.149306,-0.167969 -0.335937,-0.391927 3.956595,2.482203 5.934892,7.231984 5.934892,14.249341 0,7.371958 -1.959634,12.802945 -5.878903,16.29296 -3.004773,2.687499 -7.91319,4.031248 -14.725252,4.031248 z"
           id="path883" />
        <path
           style="color:#000000;font-style:normal;font-variant:normal;font-weight:normal;font-stretch:normal;font-size:57.3333px;line-height:normal;font-family:Algerian;-inkscape-font-specification:Algerian;font-variant-ligatures:normal;font-variant-position:normal;font-variant-caps:normal;font-variant-numeric:normal;font-variant-alternates:normal;font-variant-east-asian:normal;font-feature-settings:normal;font-variation-settings:normal;text-indent:0;text-align:start;text-decoration:none;text-decoration-line:none;text-decoration-style:solid;text-decoration-color:#000000;letter-spacing:normal;word-spacing:normal;text-transform:none;writing-mode:lr-tb;direction:ltr;text-orientation:mixed;dominant-baseline:auto;baseline-shift:baseline;text-anchor:start;white-space:normal;shape-padding:0;shape-margin:0;inline-size:0;clip-rule:nonzero;display:inline;overflow:visible;visibility:visible;isolation:auto;mix-blend-mode:normal;color-interpolation:sRGB;color-interpolation-filters:linearRGB;solid-color:#000000;solid-opacity:1;vector-effect:none;fill:url(#linearGradient1075);fill-opacity:1.0;fill-rule:nonzero;stroke:none;stroke-linecap:butt;stroke-linejoin:miter;stroke-miterlimit:4;stroke-dasharray:none;stroke-dashoffset:0;stroke-opacity:1;color-rendering:auto;image-rendering:auto;shape-rendering:auto;text-rendering:auto;enable-background:accumulate;stop-color:#000000;stop-opacity:1"
           d="m 19.822266,24.556641 2.345703,2.521484 2.59375,2.789063 v 28.427734 l -6.757813,5.179687 h 4 l 1.275391,2.294922 h 0.882812 9.826172 c 7.007974,0 12.297992,-1.348403 15.722657,-4.410156 l 0.002,-0.002 c 4.309603,-3.838906 6.378906,-9.775548 6.378906,-17.41211 0,-7.072059 -2.05755,-12.309701 -6.271485,-15.197265 -0.0073,-0.0087 -0.0025,-0.003 -0.0098,-0.01172 l -0.002,0.002 c -0.131286,-0.08972 -0.217956,-0.227455 -0.353516,-0.3125 l -0.867187,0.992188 c -0.45903,-0.474577 -0.850353,-1.009807 -1.375,-1.425781 C 44.222569,25.60426 39.882542,24.55664 34.29684,24.55664 Z m 16.070308,7.732421 c 2.051634,0 3.935724,0.416652 5.714844,1.25586 l 0.269531,-0.402344 c 1.581236,2.140241 2.509766,5.475701 2.509766,10.328125 0,6.267191 -1.337127,10.452001 -3.628907,12.775391 v 0.002 h -0.002 c -0.836,0.852078 -1.654285,1.368728 -2.46875,1.636719 -0.535959,0.165018 -1.743226,0.207831 -2.798828,0.28125 V 32.3125 c 0.113308,-0.0036 0.310596,-0.02344 0.404297,-0.02344 z"
           id="path885"
           sodipodi:nodetypes="ccccccccsccsccccccsccsccccccscsc" />
      </g>
    </g>
  </g>
</svg>
