<?xml version="1.0" encoding="UTF-8" standalone="no"?>
<svg
   xmlns:dc="http://purl.org/dc/elements/1.1/"
   xmlns:cc="http://creativecommons.org/ns#"
   xmlns:rdf="http://www.w3.org/1999/02/22-rdf-syntax-ns#"
   xmlns:svg="http://www.w3.org/2000/svg"
   xmlns="http://www.w3.org/2000/svg"
   xmlns:sodipodi="http://sodipodi.sourceforge.net/DTD/sodipodi-0.dtd"
   xmlns:inkscape="http://www.inkscape.org/namespaces/inkscape"
   class="loading-logo"
   role="img"
   viewBox="-3 -3 83.999999 96.000115"
   version="1.1"
   id="svg8"
   sodipodi:docname="logo.svg"
   inkscape:version="1.0.2 (e86c870879, 2021-01-15, custom)"
   width="84"
   height="96.000114">
  <metadata
     id="metadata14">
    <rdf:RDF>
      <cc:Work
         rdf:about="">
        <dc:format>image/svg+xml</dc:format>
        <dc:type
           rdf:resource="http://purl.org/dc/dcmitype/StillImage" />
        <dc:title>Logo</dc:title>
      </cc:Work>
    </rdf:RDF>
  </metadata>
  <defs
     id="defs12" />
  <sodipodi:namedview
     pagecolor="#ffffff"
     bordercolor="#666666"
     borderopacity="1"
     objecttolerance="10"
     gridtolerance="10"
     guidetolerance="10"
     inkscape:pageopacity="0"
     inkscape:pageshadow="2"
     inkscape:window-width="1920"
     inkscape:window-height="1001"
     id="namedview10"
     showgrid="false"
     inkscape:zoom="6.1135274"
     inkscape:cx="2.3018789"
     inkscape:cy="55.338155"
     inkscape:window-x="-9"
     inkscape:window-y="-9"
     inkscape:window-maximized="1"
     inkscape:current-layer="svg8"
     inkscape:document-rotation="0" />
  <title
     id="title2">Logo</title>
  <path
     style="color:#000000;font-style:normal;font-variant:normal;font-weight:normal;font-stretch:normal;font-size:medium;line-height:normal;font-family:sans-serif;font-variant-ligatures:normal;font-variant-position:normal;font-variant-caps:normal;font-variant-numeric:normal;font-variant-alternates:normal;font-variant-east-asian:normal;font-feature-settings:normal;font-variation-settings:normal;text-indent:0;text-align:start;text-decoration:none;text-decoration-line:none;text-decoration-style:solid;text-decoration-color:#000000;letter-spacing:normal;word-spacing:normal;text-transform:none;writing-mode:lr-tb;direction:ltr;text-orientation:mixed;dominant-baseline:auto;baseline-shift:baseline;text-anchor:start;white-space:normal;shape-padding:0;shape-margin:0;inline-size:0;clip-rule:nonzero;display:inline;overflow:visible;visibility:visible;opacity:1;isolation:auto;mix-blend-mode:normal;color-interpolation:sRGB;color-interpolation-filters:linearRGB;solid-color:#000000;solid-opacity:1;vector-effect:none;fill:#ff5500;fill-opacity:1;fill-rule:nonzero;stroke:none;stroke-linecap:butt;stroke-linejoin:round;stroke-miterlimit:4;stroke-dasharray:none;stroke-dashoffset:0;stroke-opacity:1;color-rendering:auto;image-rendering:auto;shape-rendering:auto;text-rendering:auto;enable-background:accumulate;stop-color:#000000;stop-opacity:1"
     d="m 38.996094,-2.9999984 a 3.0003,3.0003 0 0 0 -1.470703,0.386719 l -39,22.0000004 A 3.0003,3.0003 0 0 0 -3,22.000002 v 45 a 3.0003,3.0003 0 0 0 1.476563,2.583984 l 38.999999,23 a 3.0003,3.0003 0 0 0 2.998047,0.0293 l 39,-22 A 3.0003,3.0003 0 0 0 81,68.000002 v -45 a 3.0003,3.0003 0 0 0 -1.476562,-2.583984 l -39,-23.0000004 a 3.0003,3.0003 0 0 0 -1.527344,-0.416016 z m -0.0293,6.462891 36.033203,21.2500004 V 66.248049 L 39.0332,86.537111 2.999997,65.287111 V 23.751955 Z"
     id="polygon4" />
  <g
     aria-label="D"
     id="text6"
     style="font-size:57.3333px;font-family:sans-serif;fill:#ff5500;stroke:#ff5500;stroke-width:3">
    <path
       d="m 23.266129,26.05714 h 11.029942 q 8.09049,0 11.981764,3.10742 5.794918,4.591144 5.794918,14.389315 0,10.162104 -5.067054,14.697258 -2.295572,2.043618 -5.151039,2.883462 -2.827472,0.839843 -7.530595,0.839843 H 22.426285 L 26.26157,59.034987 V 29.27654 Z m 8.482417,2.351561 V 59.81884 h 1.539713 V 30.256357 q 1.455728,-0.223959 2.659503,-0.223959 2.295572,0 3.611326,0.475912 1.34375,0.447916 2.687499,1.679686 -2.967446,-1.399739 -6.354814,-1.399739 -0.727864,0 -1.903645,0.11198 V 59.81884 q 3.135415,0 4.759112,-0.503906 1.623697,-0.5319 3.079425,-2.015624 4.059243,-4.115232 4.059243,-13.829419 0,-9.490229 -4.39518,-12.961581 Q 38.831224,28.408701 33.0643,28.408701 Z M 24.161962,64.27001 23.74204,63.514151 h 10.246088 q 7.55859,0 11.477858,-2.099608 8.426428,-4.479165 8.426428,-17.328767 0,-8.594396 -3.779295,-12.765618 l -1.119791,-1.23177 q -0.05599,-0.05599 -0.335937,-0.391927 5.934892,3.723305 5.934892,14.249341 0,11.057937 -5.878903,16.29296 -4.507159,4.031248 -14.725252,4.031248 z"
       style="font-style:normal;font-variant:normal;font-weight:normal;font-stretch:normal;font-size:57.3333px;font-family:Algerian;-inkscape-font-specification:Algerian"
       id="path876" />
  </g>
</svg>
